<svg width="1980" height="1080" viewBox="0 0 1980 1080" fill="none" xmlns="http://www.w3.org/2000/svg">
<g clip-path="url(#clip0_259_2)" filter="url(#filter0_f_259_2)">
<path d="M1980 0H0V1080H1980V0Z" fill="#3D0000"/>
<path d="M0 727.2L36.74 709.56C73.26 691.74 146.74 656.46 220 653.76C293.26 651.06 366.74 680.94 440 706.14C513.26 731.34 586.74 751.86 660 757.26C733.26 762.66 806.74 752.94 880 732.06C953.26 711 1026.74 678.6 1100 667.26C1173.26 655.74 1246.74 665.46 1320 657.36C1393.26 649.26 1466.74 623.34 1540 619.2C1613.26 615.06 1686.74 632.34 1760 622.8C1833.26 613.26 1906.74 576.54 1943.26 558.36L1980 540V1081.8H1943.26C1906.74 1081.8 1833.26 1081.8 1760 1081.8C1686.74 1081.8 1613.26 1081.8 1540 1081.8C1466.74 1081.8 1393.26 1081.8 1320 1081.8C1246.74 1081.8 1173.26 1081.8 1100 1081.8C1026.74 1081.8 953.26 1081.8 880 1081.8C806.74 1081.8 733.26 1081.8 660 1081.8C586.74 1081.8 513.26 1081.8 440 1081.8C366.74 1081.8 293.26 1081.8 220 1081.8C146.74 1081.8 73.26 1081.8 36.74 1081.8H0V727.2Z" fill="#DC143C"/>
<path d="M0 577.8H36.74C73.26 577.8 146.74 577.8 220 577.44C293.26 577.26 366.74 576.54 440 595.44C513.26 614.34 586.74 652.86 660 683.1C733.26 713.34 806.74 735.66 880 734.04C953.26 732.6 1026.74 707.4 1100 716.04C1173.26 724.86 1246.74 767.34 1320 768.06C1393.26 768.6 1466.74 727.2 1540 718.74C1613.26 710.46 1686.74 734.94 1760 720.9C1833.26 706.86 1906.74 653.94 1943.26 627.66L1980 601.2V1081.8H1943.26C1906.74 1081.8 1833.26 1081.8 1760 1081.8C1686.74 1081.8 1613.26 1081.8 1540 1081.8C1466.74 1081.8 1393.26 1081.8 1320 1081.8C1246.74 1081.8 1173.26 1081.8 1100 1081.8C1026.74 1081.8 953.26 1081.8 880 1081.8C806.74 1081.8 733.26 1081.8 660 1081.8C586.74 1081.8 513.26 1081.8 440 1081.8C366.74 1081.8 293.26 1081.8 220 1081.8C146.74 1081.8 73.26 1081.8 36.74 1081.8H0V577.8Z" fill="#CE1032"/>
<path d="M0 759.6L36.74 768.6C73.26 777.6 146.74 795.6 220 804.06C293.26 812.34 366.74 811.26 440 798.66C513.26 786.06 586.74 761.94 660 739.8C733.26 717.66 806.74 697.14 880 697.14C953.26 697.14 1026.74 717.66 1100 741.6C1173.26 765.54 1246.74 793.26 1320 777.6C1393.26 761.94 1466.74 703.26 1540 693C1613.26 682.74 1686.74 721.26 1760 748.44C1833.26 775.8 1906.74 792 1943.26 800.1L1980 808.2V1081.8H1943.26C1906.74 1081.8 1833.26 1081.8 1760 1081.8C1686.74 1081.8 1613.26 1081.8 1540 1081.8C1466.74 1081.8 1393.26 1081.8 1320 1081.8C1246.74 1081.8 1173.26 1081.8 1100 1081.8C1026.74 1081.8 953.26 1081.8 880 1081.8C806.74 1081.8 733.26 1081.8 660 1081.8C586.74 1081.8 513.26 1081.8 440 1081.8C366.74 1081.8 293.26 1081.8 220 1081.8C146.74 1081.8 73.26 1081.8 36.74 1081.8H0V759.6Z" fill="#C10C28"/>
<path d="M0 801L36.74 799.74C73.26 798.66 146.74 796.14 220 793.8C293.26 791.46 366.74 788.94 440 808.56C513.26 828 586.74 869.4 660 873.54C733.26 877.86 806.74 844.74 880 820.26C953.26 795.6 1026.74 779.4 1100 778.14C1173.26 777.06 1246.74 790.74 1320 789.66C1393.26 788.4 1466.74 772.2 1540 778.86C1613.26 785.34 1686.74 814.86 1760 824.04C1833.26 833.4 1906.74 822.6 1943.26 817.2L1980 811.8V1081.8H1943.26C1906.74 1081.8 1833.26 1081.8 1760 1081.8C1686.74 1081.8 1613.26 1081.8 1540 1081.8C1466.74 1081.8 1393.26 1081.8 1320 1081.8C1246.74 1081.8 1173.26 1081.8 1100 1081.8C1026.74 1081.8 953.26 1081.8 880 1081.8C806.74 1081.8 733.26 1081.8 660 1081.8C586.74 1081.8 513.26 1081.8 440 1081.8C366.74 1081.8 293.26 1081.8 220 1081.8C146.74 1081.8 73.26 1081.8 36.74 1081.8H0V801Z" fill="#B3081E"/>
<path d="M0 792L36.74 811.8C73.26 831.6 146.74 871.2 220 890.46C293.26 909.54 366.74 908.46 440 898.56C513.26 888.66 586.74 869.94 660 856.44C733.26 842.94 806.74 834.66 880 829.44C953.26 824.4 1026.74 822.6 1100 839.16C1173.26 855.54 1246.74 890.46 1320 896.04C1393.26 901.8 1466.74 878.4 1540 857.34C1613.26 836.46 1686.74 817.74 1760 834.3C1833.26 850.86 1906.74 902.34 1943.26 928.26L1980 954V1081.8H1943.26C1906.74 1081.8 1833.26 1081.8 1760 1081.8C1686.74 1081.8 1613.26 1081.8 1540 1081.8C1466.74 1081.8 1393.26 1081.8 1320 1081.8C1246.74 1081.8 1173.26 1081.8 1100 1081.8C1026.74 1081.8 953.26 1081.8 880 1081.8C806.74 1081.8 733.26 1081.8 660 1081.8C586.74 1081.8 513.26 1081.8 440 1081.8C366.74 1081.8 293.26 1081.8 220 1081.8C146.74 1081.8 73.26 1081.8 36.74 1081.8H0V792Z" fill="#A50515"/>
<path d="M0 961.2L36.74 959.4C73.26 957.6 146.74 954 220 960.66C293.26 967.14 366.74 984.06 440 986.04C513.26 988.2 586.74 975.6 660 964.44C733.26 953.46 806.74 943.74 880 933.84C953.26 923.94 1026.74 913.86 1100 912.06C1173.26 910.26 1246.74 916.74 1320 922.5C1393.26 928.26 1466.74 932.94 1540 939.6C1613.26 946.26 1686.74 954.54 1760 960.3C1833.26 966.06 1906.74 968.94 1943.26 970.56L1980 972V1081.8H1943.26C1906.74 1081.8 1833.26 1081.8 1760 1081.8C1686.74 1081.8 1613.26 1081.8 1540 1081.8C1466.74 1081.8 1393.26 1081.8 1320 1081.8C1246.74 1081.8 1173.26 1081.8 1100 1081.8C1026.74 1081.8 953.26 1081.8 880 1081.8C806.74 1081.8 733.26 1081.8 660 1081.8C586.74 1081.8 513.26 1081.8 440 1081.8C366.74 1081.8 293.26 1081.8 220 1081.8C146.74 1081.8 73.26 1081.8 36.74 1081.8H0V961.2Z" fill="#98020B"/>
<path d="M0 991.8L36.74 991.26C73.26 990.54 146.74 989.46 220 981.36C293.26 973.26 366.74 958.14 440 967.14C513.26 976.14 586.74 1009.26 660 1024.56C733.26 1039.86 806.74 1037.34 880 1034.46C953.26 1031.4 1026.74 1027.8 1100 1021.5C1173.26 1015.2 1246.74 1006.2 1320 994.14C1393.26 982.26 1466.74 967.14 1540 963.54C1613.26 959.94 1686.74 967.86 1760 974.7C1833.26 981.54 1906.74 987.66 1943.26 990.54L1980 993.6V1081.8H1943.26C1906.74 1081.8 1833.26 1081.8 1760 1081.8C1686.74 1081.8 1613.26 1081.8 1540 1081.8C1466.74 1081.8 1393.26 1081.8 1320 1081.8C1246.74 1081.8 1173.26 1081.8 1100 1081.8C1026.74 1081.8 953.26 1081.8 880 1081.8C806.74 1081.8 733.26 1081.8 660 1081.8C586.74 1081.8 513.26 1081.8 440 1081.8C366.74 1081.8 293.26 1081.8 220 1081.8C146.74 1081.8 73.26 1081.8 36.74 1081.8H0V991.8Z" fill="#8B0000"/>
</g>
<defs>
<filter id="filter0_f_259_2" x="-10" y="-10" width="2000" height="1100" filterUnits="userSpaceOnUse" color-interpolation-filters="sRGB">
<feFlood flood-opacity="0" result="BackgroundImageFix"/>
<feBlend mode="normal" in="SourceGraphic" in2="BackgroundImageFix" result="shape"/>
<feGaussianBlur stdDeviation="5" result="effect1_foregroundBlur_259_2"/>
</filter>
<clipPath id="clip0_259_2">
<rect width="1980" height="1080" fill="white"/>
</clipPath>
</defs>
</svg>
